#Comment line ignore any data following # character 
#Hierarchical Translation and Rotation (.htr) file 
[Header]	
#Header keywords are followed by a single value 
FileType HTR		#Single word string
DataType HTRS		#Translation followed by rotation and scale data
FileVersion 1		#integer
NumSegments 84		#integer
NumFrames 2		#integer
DataFrameRate 30		#integer, data frame rate in this file
EulerRotationOrder ZYX
CalibrationUnits mm
RotationUnits Degrees
GlobalAxisofGravity Y
BoneLengthAxis Y
ScaleFactor 1.00
[SegmentNames&Hierarchy]
#CHILD	PARENT
MASTER GLOBAL
root MASTER
chest root
L_mid_tent01 root
R_mid_tent01 root
spine01 root
Bip01_Neck chest
L_humerus chest
R_humerus chest
weapon_bone chest
Bip01_Head Bip01_Neck
eye_left_bone Bip01_Head
eye_right_bone Bip01_Head
L_forearm L_humerus
L_front_hand L_forearm
L_weapon_bone L_forearm
L_front_hand01_01 L_front_hand
L_front_hand02_01 L_front_hand
L_front_hand03_01 L_front_hand
L_front_hand01_02 L_front_hand01_01
L_front_hand02_02 L_front_hand02_01
L_front_hand03_02 L_front_hand03_01
R_forearm R_humerus
R_front_hand R_forearm
R_weapon_bone R_forearm
R_front_hand01_01 R_front_hand
R_front_hand02_01 R_front_hand
R_front_hand03_01 R_front_hand
R_front_hand01_02 R_front_hand01_01
R_front_hand02_02 R_front_hand02_01
R_front_hand03_02 R_front_hand03_01
null_rope01_connect L_mid_tent01
Rope1_Seg01 null_rope01_connect
Rope1_Seg02 Rope1_Seg01
Rope1_Seg03 Rope1_Seg02
Rope1_Seg04 Rope1_Seg03
Rope1_Seg05 Rope1_Seg04
Rope1_Seg06 Rope1_Seg05
Rope1_Seg07 Rope1_Seg06
Rope1_Seg09 Rope1_Seg07
L_mid_hand01 Rope1_Seg09
L_mid_hand02 Rope1_Seg09
L_mid_hand03 Rope1_Seg09
null_rope02_connect R_mid_tent01
Rope2_Seg01 null_rope02_connect
Rope2_Seg02 Rope2_Seg01
Rope2_Seg03 Rope2_Seg02
Rope2_Seg04 Rope2_Seg03
Rope2_Seg05 Rope2_Seg04
Rope2_Seg06 Rope2_Seg05
Rope2_Seg07 Rope2_Seg06
Rope2_Seg09 Rope2_Seg07
R_mid_hand01 Rope2_Seg09
R_mid_hand02 Rope2_Seg09
R_mid_hand03 Rope2_Seg09
spine02 spine01
spine03 spine02
pelvis spine03
null_rope03_connect pelvis
null_rope04_connect pelvis
Rope3_Seg01 null_rope03_connect
Rope3_Seg02 Rope3_Seg01
Rope3_Seg03 Rope3_Seg02
Rope3_Seg04 Rope3_Seg03
Rope3_Seg05 Rope3_Seg04
Rope3_Seg06 Rope3_Seg05
Rope3_Seg07 Rope3_Seg06
Rope3_Seg08 Rope3_Seg07
Rope3_Seg09 Rope3_Seg08
R_rear_hand01 Rope3_Seg09
R_rear_hand02 Rope3_Seg09
R_rear_hand03 Rope3_Seg09
Rope4_Seg01 null_rope04_connect
Rope4_Seg02 Rope4_Seg01
Rope4_Seg03 Rope4_Seg02
Rope4_Seg04 Rope4_Seg03
Rope4_Seg05 Rope4_Seg04
Rope4_Seg06 Rope4_Seg05
Rope4_Seg07 Rope4_Seg06
Rope4_Seg08 Rope4_Seg07
Rope4_Seg09 Rope4_Seg08
L_rear_hand01 Rope4_Seg09
L_rear_hand02 Rope4_Seg09
L_rear_hand03 Rope4_Seg09
[BasePosition]
#SegmentName Tx, Ty, Tz, Rx, Ry, Rz, BoneLength
MASTER 0.000000 0.000000 0.000000 -90.000000 0.000000 0.000000 10.000000 
root 0.000000 0.000000 0.000000 0.000000 0.000000 0.000000 10.000000 
chest 0.000000 0.000000 0.000000 0.000000 0.000000 0.000000 10.000000 
L_mid_tent01 0.000000 0.000000 0.000000 0.000000 0.000000 0.000000 10.000000 
R_mid_tent01 0.000000 0.000000 0.000000 0.000000 0.000000 0.000000 10.000000 
spine01 0.000000 0.000000 0.000000 0.000000 0.000000 0.000000 10.000000 
Bip01_Neck 0.000000 0.000000 0.000000 0.000000 0.000000 0.000000 10.000000 
L_humerus 0.000000 0.000000 0.000000 0.000000 0.000000 0.000000 10.000000 
R_humerus 0.000000 0.000000 0.000000 0.000000 0.000000 0.000000 10.000000 
weapon_bone 0.000000 0.000000 0.000000 0.000000 0.000000 0.000000 10.000000 
Bip01_Head 0.000000 0.000000 0.000000 0.000000 0.000000 0.000000 10.000000 
eye_left_bone 0.000000 0.000000 0.000000 0.000000 0.000000 0.000000 10.000000 
eye_right_bone 0.000000 0.000000 0.000000 0.000000 0.000000 0.000000 10.000000 
L_forearm 0.000000 0.000000 0.000000 0.000000 0.000000 0.000000 10.000000 
L_front_hand 0.000000 0.000000 0.000000 0.000000 0.000000 0.000000 10.000000 
L_weapon_bone 0.000000 0.000000 0.000000 0.000000 0.000000 0.000000 10.000000 
L_front_hand01_01 0.000000 0.000000 0.000000 0.000000 0.000000 0.000000 10.000000 
L_front_hand02_01 0.000000 0.000000 0.000000 0.000000 0.000000 0.000000 10.000000 
L_front_hand03_01 0.000000 0.000000 0.000000 0.000000 0.000000 0.000000 10.000000 
L_front_hand01_02 0.000000 0.000000 0.000000 0.000000 0.000000 0.000000 10.000000 
L_front_hand02_02 0.000000 0.000000 0.000000 0.000000 0.000000 0.000000 10.000000 
L_front_hand03_02 0.000000 0.000000 0.000000 0.000000 0.000000 0.000000 10.000000 
R_forearm 0.000000 0.000000 0.000000 0.000000 0.000000 0.000000 10.000000 
R_front_hand 0.000000 0.000000 0.000000 0.000000 0.000000 0.000000 10.000000 
R_weapon_bone 0.000000 0.000000 0.000000 0.000000 0.000000 0.000000 10.000000 
R_front_hand01_01 0.000000 0.000000 0.000000 0.000000 0.000000 0.000000 10.000000 
R_front_hand02_01 0.000000 0.000000 0.000000 0.000000 0.000000 0.000000 10.000000 
R_front_hand03_01 0.000000 0.000000 0.000000 0.000000 0.000000 0.000000 10.000000 
R_front_hand01_02 0.000000 0.000000 0.000000 0.000000 0.000000 0.000000 10.000000 
R_front_hand02_02 0.000000 0.000000 0.000000 0.000000 0.000000 0.000000 10.000000 
R_front_hand03_02 0.000000 0.000000 0.000000 0.000000 0.000000 0.000000 10.000000 
null_rope01_connect 0.000000 0.000000 0.000000 0.000000 0.000000 0.000000 10.000000 
Rope1_Seg01 0.000000 0.000000 0.000000 0.000000 0.000000 0.000000 10.000000 
Rope1_Seg02 0.000000 0.000000 0.000000 0.000000 0.000000 0.000000 10.000000 
Rope1_Seg03 0.000000 0.000000 0.000000 0.000000 0.000000 0.000000 10.000000 
Rope1_Seg04 0.000000 0.000000 0.000000 0.000000 0.000000 0.000000 10.000000 
Rope1_Seg05 0.000000 0.000000 0.000000 0.000000 0.000000 0.000000 10.000000 
Rope1_Seg06 0.000000 0.000000 0.000000 0.000000 0.000000 0.000000 10.000000 
Rope1_Seg07 0.000000 0.000000 0.000000 0.000000 0.000000 0.000000 10.000000 
Rope1_Seg09 0.000000 0.000000 0.000000 0.000000 0.000000 0.000000 10.000000 
L_mid_hand01 0.000000 0.000000 0.000000 0.000000 0.000000 0.000000 10.000000 
L_mid_hand02 0.000000 0.000000 0.000000 0.000000 0.000000 0.000000 10.000000 
L_mid_hand03 0.000000 0.000000 0.000000 0.000000 0.000000 0.000000 10.000000 
null_rope02_connect 0.000000 0.000000 0.000000 0.000000 0.000000 0.000000 10.000000 
Rope2_Seg01 0.000000 0.000000 0.000000 0.000000 0.000000 0.000000 10.000000 
Rope2_Seg02 0.000000 0.000000 0.000000 0.000000 0.000000 0.000000 10.000000 
Rope2_Seg03 0.000000 0.000000 0.000000 0.000000 0.000000 0.000000 10.000000 
Rope2_Seg04 0.000000 0.000000 0.000000 0.000000 0.000000 0.000000 10.000000 
Rope2_Seg05 0.000000 0.000000 0.000000 0.000000 0.000000 0.000000 10.000000 
Rope2_Seg06 0.000000 0.000000 0.000000 0.000000 0.000000 0.000000 10.000000 
Rope2_Seg07 0.000000 0.000000 0.000000 0.000000 0.000000 0.000000 10.000000 
Rope2_Seg09 0.000000 0.000000 0.000000 0.000000 0.000000 0.000000 10.000000 
R_mid_hand01 0.000000 0.000000 0.000000 0.000000 0.000000 0.000000 10.000000 
R_mid_hand02 0.000000 0.000000 0.000000 0.000000 0.000000 0.000000 10.000000 
R_mid_hand03 0.000000 0.000000 0.000000 0.000000 0.000000 0.000000 10.000000 
spine02 0.000000 0.000000 0.000000 0.000000 0.000000 0.000000 10.000000 
spine03 0.000000 0.000000 0.000000 0.000000 0.000000 0.000000 10.000000 
pelvis 0.000000 0.000000 0.000000 0.000000 0.000000 0.000000 10.000000 
null_rope03_connect 0.000000 0.000000 0.000000 0.000000 0.000000 0.000000 10.000000 
null_rope04_connect 0.000000 0.000000 0.000000 0.000000 0.000000 0.000000 10.000000 
Rope3_Seg01 0.000000 0.000000 0.000000 0.000000 0.000000 0.000000 10.000000 
Rope3_Seg02 0.000000 0.000000 0.000000 0.000000 0.000000 0.000000 10.000000 
Rope3_Seg03 0.000000 0.000000 0.000000 0.000000 0.000000 0.000000 10.000000 
Rope3_Seg04 0.000000 0.000000 0.000000 0.000000 0.000000 0.000000 10.000000 
Rope3_Seg05 0.000000 0.000000 0.000000 0.000000 0.000000 0.000000 10.000000 
Rope3_Seg06 0.000000 0.000000 0.000000 0.000000 0.000000 0.000000 10.000000 
Rope3_Seg07 0.000000 0.000000 0.000000 0.000000 0.000000 0.000000 10.000000 
Rope3_Seg08 0.000000 0.000000 0.000000 0.000000 0.000000 0.000000 10.000000 
Rope3_Seg09 0.000000 0.000000 0.000000 0.000000 0.000000 0.000000 10.000000 
R_rear_hand01 0.000000 0.000000 0.000000 0.000000 0.000000 0.000000 10.000000 
R_rear_hand02 0.000000 0.000000 0.000000 0.000000 0.000000 0.000000 10.000000 
R_rear_hand03 0.000000 0.000000 0.000000 0.000000 0.000000 0.000000 10.000000 
Rope4_Seg01 0.000000 0.000000 0.000000 0.000000 0.000000 0.000000 10.000000 
Rope4_Seg02 0.000000 0.000000 0.000000 0.000000 0.000000 0.000000 10.000000 
Rope4_Seg03 0.000000 0.000000 0.000000 0.000000 0.000000 0.000000 10.000000 
Rope4_Seg04 0.000000 0.000000 0.000000 0.000000 0.000000 0.000000 10.000000 
Rope4_Seg05 0.000000 0.000000 0.000000 0.000000 0.000000 0.000000 10.000000 
Rope4_Seg06 0.000000 0.000000 0.000000 0.000000 0.000000 0.000000 10.000000 
Rope4_Seg07 0.000000 0.000000 0.000000 0.000000 0.000000 0.000000 10.000000 
Rope4_Seg08 0.000000 0.000000 0.000000 0.000000 0.000000 0.000000 10.000000 
Rope4_Seg09 0.000000 0.000000 0.000000 0.000000 0.000000 0.000000 10.000000 
L_rear_hand01 0.000000 0.000000 0.000000 0.000000 0.000000 0.000000 10.000000 
L_rear_hand02 0.000000 0.000000 0.000000 0.000000 0.000000 0.000000 10.000000 
L_rear_hand03 0.000000 0.000000 0.000000 0.000000 0.000000 0.000000 10.000000 
#Beginning of Data. Separated by tabs
#Fr	Tx	Ty	Tz	Rx	Ry	Rz	SF
[MASTER]
16 0.000000 0.000000 0.000000 0.001660 0.001660 0.001660 0.000000
17 0.000000 0.000000 0.000000 0.001660 0.001660 0.001660 0.000000
[root]
16 -9.644472 -12.294445 1449.622681 -91.706375 7.188744 -90.037125 1449.706909
17 -13.592350 -10.016105 1444.574097 -91.706375 7.188744 -90.037125 1444.672852
[chest]
16 -84.512650 -34.090519 0.000000 -2.117274 0.462005 -179.268204 91.129311
17 -84.512650 -34.090519 0.000000 -2.117274 0.462005 -179.268204 91.129311
[L_mid_tent01]
16 27.299511 22.177458 -249.918259 -11.212391 7.173965 46.128521 252.381134
17 27.299511 22.177458 -249.918259 -11.212391 7.173965 46.128521 252.381134
[R_mid_tent01]
16 23.228794 24.509907 226.238495 -173.453110 -7.865566 48.320808 228.744751
17 23.228794 24.509907 226.238495 -173.453110 -7.865564 48.320797 228.744751
[spine01]
16 -0.361383 -0.195265 0.000000 -0.000001 -0.000007 22.052340 0.410763
17 -0.361383 -0.195265 0.000000 -0.000001 -0.000007 22.052340 0.410763
[Bip01_Neck]
16 165.484543 71.581718 0.000119 175.896118 1.177290 24.871183 180.302734
17 165.484543 71.581718 0.000119 175.896118 1.177290 24.871180 180.302734
[L_humerus]
16 -13.983130 -135.272980 -120.471481 177.317520 0.814944 177.327347 181.680161
17 -13.983130 -135.272980 -120.471481 177.317520 0.814944 177.327347 181.680161
[R_humerus]
16 -13.983309 -135.273102 125.287651 -179.087967 -0.295690 175.068390 184.909012
17 -13.983309 -135.273102 125.287651 -179.087967 -0.295690 175.068390 184.909012
[weapon_bone]
16 235.964890 -300.705902 0.000000 0.000000 -89.951546 -128.212341 382.234833
17 235.964890 -300.705902 0.000000 0.000000 -89.951546 -128.212341 382.234833
[Bip01_Head]
16 97.775497 22.186661 5.309563 3.366012 3.339071 -18.399078 100.401627
17 97.775497 22.186661 5.309563 3.366011 3.339070 -18.399073 100.401627
[eye_left_bone]
16 -24.626970 125.451866 -64.772606 0.000000 -90.000000 -99.840431 143.318359
17 -24.626970 125.451866 -64.772606 0.000000 -90.000000 -99.840431 143.318359
[eye_right_bone]
16 -24.626970 125.451866 64.327362 0.000000 -89.965736 80.156380 143.117676
17 -24.626970 125.451866 64.327362 0.000000 -89.965736 80.156380 143.117676
[L_forearm]
16 322.776093 0.000000 -0.000119 0.001372 -0.001904 -161.553818 322.776093
17 322.776093 0.000000 -0.000119 0.001372 -0.001904 -161.553818 322.776093
[L_front_hand]
16 241.149185 -0.042021 -3.300071 -179.659958 -2.242151 -0.019832 241.171753
17 241.149185 -0.042021 -3.300071 -179.659958 -2.242151 -0.019832 241.171753
[L_weapon_bone]
16 156.183838 0.000000 0.000000 0.000014 0.000007 0.000001 156.183838
17 156.183838 0.000000 0.000000 0.000014 0.000007 0.000001 156.183838
[L_front_hand01_01]
16 86.095154 20.947098 -0.655860 0.405585 -0.442306 -4.620490 88.609184
17 86.095154 20.947098 -0.655860 0.405585 -0.442306 -4.620490 88.609184
[L_front_hand02_01]
16 86.935165 -11.437475 24.513514 116.959450 3.630818 1.495453 91.046425
17 86.935165 -11.437475 24.513514 116.959450 3.630817 1.495453 91.046425
[L_front_hand03_01]
16 86.637497 -14.123976 -20.424902 -118.419884 -4.660555 -0.155069 90.126129
17 86.637497 -14.123976 -20.424902 -118.419884 -4.660555 -0.155069 90.126129
[L_front_hand01_02]
16 71.020905 -0.000179 0.000030 0.000004 -0.000005 -8.379269 71.020905
17 71.020905 -0.000179 0.000030 0.000004 -0.000005 -8.379269 71.020905
[L_front_hand02_02]
16 71.020927 -0.000119 0.000060 -0.000005 -0.000004 -8.379259 71.020927
17 71.020927 -0.000119 0.000060 -0.000005 -0.000004 -8.379259 71.020927
[L_front_hand03_02]
16 71.020905 -0.000060 0.000060 0.000015 -0.000040 -8.379267 71.020905
17 71.020905 -0.000060 0.000060 0.000015 -0.000040 -8.379267 71.020905
[R_forearm]
16 322.776428 -0.000060 0.000030 0.066610 0.203476 -163.260239 322.776428
17 322.776428 -0.000060 0.000030 0.066610 0.203476 -163.260239 322.776428
[R_front_hand]
16 238.847015 -0.006795 2.210259 -0.270529 1.703932 2.322530 238.857239
17 238.847015 -0.006795 2.210259 -0.270529 1.703932 2.322530 238.857239
[R_weapon_bone]
16 155.664093 0.002503 -0.000030 0.003487 0.001180 -90.988930 155.664078
17 155.664093 0.002503 -0.000030 0.003487 0.001180 -90.988930 155.664078
[R_front_hand01_01]
16 87.624611 14.231146 22.918642 -116.960205 3.496675 -1.324138 91.683487
17 87.624611 14.231146 22.918642 -116.960213 3.496675 -1.324139 91.683487
[R_front_hand02_01]
16 89.356956 14.367283 -19.491137 118.419647 -4.257089 0.609827 92.579636
17 89.356956 14.367283 -19.491137 118.419647 -4.257089 0.609827 92.579636
[R_front_hand03_01]
16 87.286232 -22.307278 -0.143439 -0.387970 -0.231462 4.232001 90.091743
17 87.286232 -22.307278 -0.143439 -0.387970 -0.231462 4.232001 90.091743
[R_front_hand01_02]
16 71.020905 0.000060 0.000119 -0.000005 -0.000020 8.379271 71.020905
17 71.020905 0.000060 0.000119 -0.000005 -0.000020 8.379271 71.020905
[R_front_hand02_02]
16 71.020844 -0.000030 -0.000119 0.000000 -0.000021 8.379271 71.020836
17 71.020844 -0.000030 -0.000119 0.000000 -0.000021 8.379271 71.020836
[R_front_hand03_02]
16 71.020905 0.000000 0.000030 -0.000001 -0.000020 8.379275 71.020905
17 71.020905 0.000000 0.000030 -0.000001 -0.000020 8.379275 71.020905
[null_rope01_connect]
16 328.732483 0.000000 -0.000238 160.552872 -75.066147 -124.625038 328.732483
17 328.732483 0.000000 -0.000238 160.552872 -75.066147 -124.625038 328.732483
[Rope1_Seg01]
16 0.000000 0.000000 0.000000 -137.329712 51.181019 -122.837891 0.000000
17 0.000000 0.000000 0.000000 -139.613785 51.181320 -123.973755 0.000000
[Rope1_Seg02]
16 139.999863 -0.000179 0.000000 47.568653 -8.122304 -20.338842 139.999863
17 139.999863 -0.000179 0.000000 47.296993 -6.968530 -20.301727 139.999863
[Rope1_Seg03]
16 139.999924 0.000060 -0.000060 25.772554 -14.985922 -6.698863 139.999924
17 139.999924 0.000060 -0.000060 27.598604 -14.251831 -7.471672 139.999924
[Rope1_Seg04]
16 139.999924 -0.000060 -0.000119 10.247524 -11.543234 -0.218377 139.999924
17 139.999924 -0.000060 -0.000119 11.347184 -11.308175 -0.760820 139.999924
[Rope1_Seg05]
16 139.999832 0.000119 -0.000060 -0.358406 -0.450213 1.007071 139.999832
17 139.999832 0.000119 -0.000060 -0.398826 -0.794726 1.404132 139.999832
[Rope1_Seg06]
16 139.999954 0.000119 -0.000060 -8.094627 8.226350 1.148507 139.999954
17 139.999954 0.000119 -0.000060 -8.246188 7.162971 2.411216 139.999954
[Rope1_Seg07]
16 139.999985 0.000060 0.000000 -18.447170 14.395672 3.845325 139.999985
17 139.999985 0.000060 0.000000 -15.455825 11.482370 5.394420 139.999985
[Rope1_Seg09]
16 121.602913 0.000119 -0.000089 -89.793175 -1.359789 0.847147 121.602913
17 121.602913 0.000119 -0.000089 -89.793175 -1.359789 0.847147 121.602913
[L_mid_hand01]
16 103.859421 1.038730 8.195221 106.855484 -31.239275 -9.461397 104.187431
17 103.859421 1.038730 8.195221 106.855484 -31.239275 -9.461397 104.187431
[L_mid_hand02]
16 105.572853 -4.139662 -10.864139 -142.331345 25.752670 -28.774628 106.211075
17 105.572853 -4.139662 -10.864139 -142.331345 25.752670 -28.774628 106.211075
[L_mid_hand03]
16 104.641464 17.579376 -3.913581 -16.122810 9.734291 34.223598 106.179977
17 104.641464 17.579376 -3.913581 -16.122810 9.734291 34.223598 106.179977
[null_rope02_connect]
16 328.732849 0.000179 -0.000119 174.610336 81.478378 -39.424732 328.732849
17 328.732849 0.000179 -0.000119 174.610321 81.478294 -39.424694 328.732849
[Rope2_Seg01]
16 0.000076 0.000111 0.000153 159.352341 49.528179 -69.593018 0.000203
17 0.000076 0.000111 0.000153 161.440247 49.945705 -68.348915 0.000203
[Rope2_Seg02]
16 139.999741 -0.000060 -0.000119 -13.949783 5.048251 10.026969 139.999756
17 139.999741 -0.000060 -0.000119 -14.327328 5.978654 9.480321 139.999756
[Rope2_Seg03]
16 140.000107 0.000030 0.000000 -16.104609 5.982129 12.287575 140.000107
17 140.000107 0.000030 0.000000 -17.207418 8.116534 10.525601 140.000107
[Rope2_Seg04]
16 139.999802 0.000000 -0.000060 -5.358061 -7.329559 9.125138 139.999802
17 139.999802 0.000000 -0.000060 -7.472178 -9.275846 11.744583 139.999802
[Rope2_Seg05]
16 139.999985 -0.000060 0.000119 0.828946 -4.793295 0.813455 139.999985
17 139.999985 -0.000060 0.000119 0.568012 -7.195931 2.106855 139.999985
[Rope2_Seg06]
16 139.999893 -0.000030 -0.000119 -0.198733 -1.619078 0.966580 139.999893
17 139.999893 -0.000030 -0.000119 -0.265744 -2.275629 1.382273 139.999893
[Rope2_Seg07]
16 139.999893 0.000060 -0.000060 -0.130301 -0.985211 0.583108 139.999893
17 139.999893 0.000060 -0.000060 -0.166529 -1.377061 0.824710 139.999893
[Rope2_Seg09]
16 121.338966 0.000089 -0.000060 33.793236 -1.359788 -0.847141 121.338966
17 121.338966 0.000089 -0.000060 33.793236 -1.359788 -0.847141 121.338966
[R_mid_hand01]
16 104.680779 11.144459 -10.335981 -41.523792 25.424656 28.595957 105.778534
17 104.680779 11.144459 -10.335981 -41.523792 25.424656 28.595957 105.778534
[R_mid_hand02]
16 104.070427 2.443552 8.231699 72.847389 -32.746803 10.013901 104.424065
17 104.070427 2.443552 8.231699 72.847389 -32.746803 10.013901 104.424065
[R_mid_hand03]
16 106.028137 -11.221827 -5.996406 -167.901306 10.259192 -37.009720 106.788818
17 106.028137 -11.221827 -5.996406 -167.901306 10.259192 -37.009720 106.788818
[spine02]
16 129.756927 0.001550 0.000119 0.360061 -4.044797 -12.915058 129.756927
17 129.756927 0.001550 0.000119 0.360061 -4.044797 -12.915058 129.756927
[spine03]
16 78.613846 0.087372 -4.898873 1.896495 3.831288 16.473049 78.766380
17 78.613846 0.087372 -4.898873 1.896495 3.831288 16.473045 78.766380
[pelvis]
16 169.435242 0.051022 0.000000 -0.060465 -0.180225 14.087930 169.435257
17 169.435242 0.051022 0.000000 -0.060465 -0.180225 14.087931 169.435257
[null_rope03_connect]
16 -1.257226 -2.466202 137.391083 -168.629944 -89.386742 -148.244751 137.418976
17 -1.257226 -2.466202 137.391083 -168.629654 -89.386108 -148.244614 137.418976
[null_rope04_connect]
16 -1.259640 -2.480268 -137.844437 -168.629944 -89.386742 -148.244751 137.872513
17 -1.259640 -2.480268 -137.844437 -168.629654 -89.386108 -148.244614 137.872513
[Rope3_Seg01]
16 0.000000 0.000000 0.000000 -138.564423 27.392660 -92.517258 0.000000
17 0.000000 0.000000 0.000000 -139.704758 27.289465 -95.374207 0.000000
[Rope3_Seg02]
16 139.999924 -0.000119 0.000060 1.343485 1.390845 -5.301312 139.999924
17 139.999924 -0.000119 0.000060 1.372101 0.405422 -6.000766 139.999924
[Rope3_Seg03]
16 139.999924 -0.000119 0.000119 1.334677 1.604798 -8.197891 139.999924
17 139.999924 -0.000119 0.000119 1.315173 0.140801 -9.077210 139.999924
[Rope3_Seg04]
16 139.999924 0.000119 0.000000 0.278898 0.485878 -20.980299 139.999924
17 139.999924 0.000119 0.000000 0.575491 -2.708154 -22.078671 139.999924
[Rope3_Seg05]
16 139.999924 -0.000238 0.000060 1.039739 7.438547 14.205837 139.999924
17 139.999924 -0.000238 0.000060 0.926383 7.733356 11.723736 139.999924
[Rope3_Seg06]
16 139.999893 -0.000119 -0.000060 -0.642950 6.394918 20.589268 139.999893
17 139.999893 -0.000119 -0.000060 0.814183 8.874369 21.727983 139.999893
[Rope3_Seg07]
16 139.999771 0.000060 -0.000119 -0.623162 2.779016 7.546429 139.999771
17 139.999771 0.000060 -0.000119 -0.017646 3.815863 7.895114 139.999771
[Rope3_Seg08]
16 139.999985 -0.000060 0.000000 -0.384769 1.480657 4.182044 139.999985
17 139.999985 -0.000060 0.000000 0.012122 2.089913 4.370705 139.999985
[Rope3_Seg09]
16 90.185997 -0.000179 -0.000060 89.793228 -1.359877 -0.847183 90.185997
17 90.185997 -0.000179 -0.000060 89.793228 -1.359877 -0.847183 90.185997
[R_rear_hand01]
16 103.366196 -6.073594 -10.757982 -161.551193 16.666374 -30.088671 104.101845
17 103.366196 -6.073594 -10.757982 -161.551193 16.666374 -30.088671 104.101845
[R_rear_hand02]
16 100.509819 12.039542 -7.992327 -34.280552 19.289745 28.875523 101.543350
17 100.509819 12.039542 -7.992327 -34.280552 19.289745 28.875523 101.543350
[R_rear_hand03]
16 101.539970 5.215704 5.435467 83.366440 -30.933914 7.284830 101.819031
17 101.539970 5.215704 5.435467 83.366440 -30.933914 7.284830 101.819031
[Rope4_Seg01]
16 0.000010 0.000038 -0.000114 47.781532 15.501986 -99.862633 0.000121
17 0.000010 0.000038 -0.000114 46.905743 15.335855 -103.385788 0.000121
[Rope4_Seg02]
16 139.999985 0.000060 0.000119 0.674305 7.708172 -0.022299 139.999985
17 139.999985 0.000060 0.000119 0.529331 8.886996 1.491348 139.999985
[Rope4_Seg03]
16 139.999924 0.000000 -0.000238 1.464690 9.905573 0.441381 139.999924
17 139.999924 0.000000 -0.000238 1.343197 11.510759 2.309546 139.999924
[Rope4_Seg04]
16 139.999985 0.000000 0.000119 3.778786 15.952621 2.035397 139.999985
17 139.999985 0.000000 0.000119 3.712200 18.015291 4.749557 139.999985
[Rope4_Seg05]
16 139.999802 -0.000060 -0.000119 0.731203 -7.696564 -4.574406 139.999802
17 139.999802 -0.000060 -0.000119 1.106360 -6.793353 -4.658164 139.999802
[Rope4_Seg06]
16 139.999924 0.000000 0.000060 0.281087 -18.782013 -6.570099 139.999924
17 139.999924 0.000000 0.000060 0.943687 -19.720592 -8.502907 139.999924
[Rope4_Seg07]
16 139.999802 0.000000 0.000000 0.302080 -7.570258 -3.190899 139.999802
17 139.999802 0.000000 0.000000 0.384765 -7.963874 -3.863080 139.999802
[Rope4_Seg08]
16 139.999924 0.000000 0.000119 -1.368870 -4.334932 -1.847253 139.999924
17 139.999924 0.000000 0.000119 -1.362088 -4.512549 -2.201958 139.999924
[Rope4_Seg09]
16 90.185791 0.000060 0.000060 -135.617828 2.228885 0.850567 90.185791
17 90.185791 0.000060 0.000060 -135.617828 2.228885 0.850567 90.185791
[L_rear_hand01]
16 101.696655 -8.392275 -7.654577 -34.454281 -18.946800 151.655121 102.329041
17 101.696655 -8.392275 -7.654577 -34.454281 -18.946800 151.655121 102.329041
[L_rear_hand02]
16 102.726799 -1.568258 5.773216 83.407906 30.330435 172.796509 102.900848
17 102.726799 -1.568258 5.773216 83.407906 30.330435 172.796509 102.900848
[L_rear_hand03]
16 104.552910 9.721220 -10.420293 -161.379868 -16.473232 -150.512238 105.519653
17 104.552910 9.721220 -10.420293 -161.379868 -16.473232 -150.512238 105.519653
